<svg width="242" height="221" viewBox="0 0 242 221" fill="none" xmlns="http://www.w3.org/2000/svg">
<path d="M73.6759 47.9978V14.6978H60.2359V5.6978H98.1559V14.6978H84.7159V47.9978H73.6759ZM101.609 47.9978V5.6978H112.289V22.1378C114.409 19.2578 117.489 17.8178 121.529 17.8178C125.049 17.8178 127.649 18.8578 129.329 20.9378C131.049 23.0178 131.909 26.2178 131.909 30.5378V47.9978H121.229V30.9578C121.229 29.1578 120.909 27.8778 120.269 27.1178C119.669 26.3578 118.769 25.9778 117.569 25.9778C115.969 25.9778 114.689 26.4978 113.729 27.5378C112.769 28.5378 112.289 29.8978 112.289 31.6178V47.9978H101.609ZM137.696 13.3778V3.7178H148.916V13.3778H137.696ZM137.996 47.9978V18.4778H148.676V47.9978H137.996ZM166.631 48.6578C163.911 48.6578 161.391 48.3778 159.071 47.8178C156.791 47.2578 154.851 46.4778 153.251 45.4778L155.711 38.5778C157.191 39.4178 158.911 40.1178 160.871 40.6778C162.831 41.1978 164.771 41.4578 166.691 41.4578C168.171 41.4578 169.231 41.2578 169.871 40.8578C170.511 40.4178 170.831 39.8578 170.831 39.1778C170.831 38.5778 170.611 38.1378 170.171 37.8578C169.771 37.5378 169.191 37.2978 168.431 37.1378L161.771 36.0578C159.291 35.6578 157.371 34.7578 156.011 33.3578C154.651 31.9578 153.971 30.1378 153.971 27.8978C153.971 25.8178 154.551 24.0378 155.711 22.5578C156.871 21.0378 158.491 19.8778 160.571 19.0778C162.651 18.2378 165.031 17.8178 167.711 17.8178C169.831 17.8178 171.931 18.0778 174.011 18.5978C176.091 19.0778 177.911 19.8778 179.471 20.9978L176.831 27.7778C175.671 26.9778 174.231 26.3178 172.511 25.7978C170.791 25.2378 169.251 24.9578 167.891 24.9578C166.251 24.9578 165.091 25.1978 164.411 25.6778C163.731 26.1178 163.391 26.6578 163.391 27.2978C163.391 28.3778 164.131 29.0378 165.611 29.2778L172.271 30.4178C174.831 30.8178 176.791 31.6978 178.151 33.0578C179.551 34.3778 180.251 36.1778 180.251 38.4578C180.251 41.6978 179.011 44.2178 176.531 46.0178C174.051 47.7778 170.751 48.6578 166.631 48.6578ZM107.729 130.658C103.449 130.658 99.6891 129.758 96.4491 127.958C93.2491 126.118 90.7491 123.558 88.9491 120.278C87.1491 116.998 86.2491 113.178 86.2491 108.818C86.2491 104.418 87.1291 100.598 88.8891 97.3578C90.6891 94.0778 93.2091 91.5378 96.4491 89.7378C99.6891 87.9378 103.449 87.0378 107.729 87.0378C112.009 87.0378 115.749 87.9378 118.949 89.7378C122.189 91.5378 124.709 94.0778 126.509 97.3578C128.309 100.598 129.209 104.418 129.209 108.818C129.209 113.178 128.309 116.998 126.509 120.278C124.709 123.558 122.189 126.118 118.949 127.958C115.749 129.758 112.009 130.658 107.729 130.658ZM107.729 121.418C110.849 121.418 113.289 120.318 115.049 118.118C116.849 115.878 117.749 112.778 117.749 108.818C117.749 104.858 116.869 101.778 115.109 99.5778C113.349 97.3778 110.889 96.2778 107.729 96.2778C104.569 96.2778 102.109 97.3778 100.349 99.5778C98.5891 101.778 97.7091 104.858 97.7091 108.818C97.7091 112.778 98.5891 115.878 100.349 118.118C102.109 120.318 104.569 121.418 107.729 121.418ZM135.008 129.998V100.478H145.388V105.458C146.748 102.058 149.688 100.198 154.208 99.8778L157.148 99.6378L157.748 108.638L151.928 109.178C149.808 109.378 148.268 109.978 147.308 110.978C146.348 111.938 145.868 113.378 145.868 115.298V129.998H135.008ZM67.1719 211.998V178.698H53.7319V169.698H91.6519V178.698H78.212V211.998H67.1719ZM95.1052 211.998V169.698H105.785V186.138C107.905 183.258 110.985 181.818 115.025 181.818C118.545 181.818 121.145 182.858 122.825 184.938C124.545 187.018 125.405 190.218 125.405 194.538V211.998H114.725V194.958C114.725 193.158 114.405 191.878 113.765 191.118C113.165 190.358 112.265 189.978 111.065 189.978C109.465 189.978 108.185 190.498 107.225 191.538C106.265 192.538 105.785 193.898 105.785 195.618V211.998H95.1052ZM141.752 212.658C139.472 212.658 137.452 212.238 135.692 211.398C133.972 210.558 132.612 209.418 131.612 207.978C130.652 206.498 130.172 204.818 130.172 202.938C130.172 200.818 130.732 199.138 131.852 197.898C132.972 196.618 134.772 195.718 137.252 195.198C139.732 194.638 143.032 194.358 147.152 194.358H149.432V193.518C149.432 192.078 149.052 191.058 148.292 190.458C147.572 189.858 146.312 189.558 144.512 189.558C142.992 189.558 141.312 189.798 139.472 190.278C137.632 190.758 135.832 191.498 134.072 192.498L131.372 185.478C132.372 184.758 133.652 184.118 135.212 183.558C136.772 182.998 138.412 182.578 140.132 182.298C141.852 181.978 143.472 181.818 144.992 181.818C149.912 181.818 153.552 182.878 155.912 184.998C158.312 187.118 159.512 190.458 159.512 195.018V211.998H149.552V207.798C149.032 209.318 148.092 210.518 146.732 211.398C145.372 212.238 143.712 212.658 141.752 212.658ZM144.152 205.698C145.632 205.698 146.872 205.218 147.872 204.258C148.912 203.298 149.432 202.038 149.432 200.478V199.398H147.152C144.792 199.398 143.052 199.658 141.932 200.178C140.852 200.658 140.312 201.438 140.312 202.518C140.312 203.438 140.632 204.198 141.272 204.798C141.952 205.398 142.912 205.698 144.152 205.698ZM181.074 212.658C176.594 212.658 173.274 211.618 171.114 209.538C168.954 207.458 167.874 204.318 167.874 200.118V190.338H162.354V182.478H167.874V173.898H178.554V182.478H186.954V190.338H178.554V199.758C178.554 202.638 180.014 204.078 182.934 204.078C183.414 204.078 183.934 204.038 184.494 203.958C185.094 203.838 185.754 203.678 186.474 203.478L187.914 211.158C186.994 211.638 185.914 211.998 184.674 212.238C183.434 212.518 182.234 212.658 181.074 212.658Z" fill="#DAFDBA"/>
<path d="M55.5226 72.7785C56.2171 73.7762 56.4003 74.9592 56.0318 76.0676C55.6632 77.176 54.7732 78.119 53.5573 78.6893C36.5532 86.6629 35.088 99.6575 35.088 111.046V136.688L50.7256 123.861C51.2132 123.448 51.7963 123.118 52.441 122.891C53.0857 122.664 53.779 122.545 54.4805 122.54C55.1819 122.535 55.8775 122.645 56.5267 122.863C57.1758 123.081 57.7654 123.403 58.2612 123.81C58.757 124.218 59.149 124.702 59.4144 125.234C59.6797 125.767 59.813 126.338 59.8066 126.913C59.8002 127.488 59.6541 128.057 59.377 128.585C59.0998 129.114 58.697 129.592 58.1922 129.992L33.5384 150.214C32.5478 151.026 31.2051 151.482 29.8051 151.482C28.4051 151.482 27.0623 151.026 26.0718 150.214L1.41789 129.992C0.484708 129.17 -0.0233252 128.084 0.000823066 126.961C0.0249713 125.838 0.579416 124.767 1.54735 123.973C2.51528 123.179 3.82113 122.724 5.18978 122.705C6.55843 122.685 7.88302 123.102 8.88449 123.867L24.5221 136.694V111.04C24.5221 99.3166 25.8745 81.6881 48.3166 71.1664C49.5329 70.5967 50.9752 70.4465 52.3264 70.7488C53.6777 71.0511 54.8273 71.7811 55.5226 72.7785V72.7785Z" fill="#012030"/>
<path d="M185.647 149.009C184.952 148.012 184.769 146.829 185.138 145.72C185.506 144.612 186.396 143.669 187.612 143.099C204.616 135.125 206.081 122.13 206.081 110.742V85.0996L190.444 97.9266C189.956 98.3403 189.373 98.6702 188.728 98.8971C188.084 99.1239 187.39 99.2432 186.689 99.2479C185.988 99.2527 185.292 99.1427 184.643 98.9246C183.994 98.7065 183.404 98.3845 182.908 97.9774C182.412 97.5703 182.02 97.0863 181.755 96.5537C181.49 96.021 181.356 95.4503 181.363 94.8749C181.369 94.2996 181.515 93.731 181.792 93.2024C182.07 92.6738 182.472 92.1958 182.977 91.7962L207.631 71.5734C208.622 70.7619 209.964 70.3061 211.364 70.3061C212.764 70.3061 214.107 70.7619 215.098 71.5734L239.752 91.7962C240.685 92.6177 241.193 93.7042 241.169 94.8269C241.144 95.9495 240.59 97.0207 239.622 97.8146C238.654 98.6086 237.348 99.0634 235.98 99.0832C234.611 99.103 233.286 98.6863 232.285 97.9208L216.647 85.0938V110.748C216.647 122.471 215.295 140.1 192.853 150.621C191.637 151.191 190.194 151.341 188.843 151.039C187.492 150.737 186.342 150.007 185.647 149.009V149.009Z" fill="#012030"/>
</svg>
