<svg width="262" height="216" viewBox="0 0 262 216" fill="none" xmlns="http://www.w3.org/2000/svg">
<path d="M83.9797 46V12.7H70.5397V3.7H108.46V12.7H95.0197V46H83.9797ZM111.913 46V3.7H122.593V20.14C124.713 17.26 127.793 15.82 131.833 15.82C135.353 15.82 137.953 16.86 139.633 18.94C141.353 21.02 142.213 24.22 142.213 28.54V46H131.533V28.96C131.533 27.16 131.213 25.88 130.573 25.12C129.973 24.36 129.073 23.98 127.873 23.98C126.273 23.98 124.993 24.5 124.033 25.54C123.073 26.54 122.593 27.9 122.593 29.62V46H111.913ZM148 11.38V1.72H159.22V11.38H148ZM148.3 46V16.48H158.98V46H148.3ZM176.935 46.66C174.215 46.66 171.695 46.38 169.375 45.82C167.095 45.26 165.155 44.48 163.555 43.48L166.015 36.58C167.495 37.42 169.215 38.12 171.175 38.68C173.135 39.2 175.075 39.46 176.995 39.46C178.475 39.46 179.535 39.26 180.175 38.86C180.815 38.42 181.135 37.86 181.135 37.18C181.135 36.58 180.915 36.14 180.475 35.86C180.075 35.54 179.495 35.3 178.735 35.14L172.075 34.06C169.595 33.66 167.675 32.76 166.315 31.36C164.955 29.96 164.275 28.14 164.275 25.9C164.275 23.82 164.855 22.04 166.015 20.56C167.175 19.04 168.795 17.88 170.875 17.08C172.955 16.24 175.335 15.82 178.015 15.82C180.135 15.82 182.235 16.08 184.315 16.6C186.395 17.08 188.215 17.88 189.775 19L187.135 25.78C185.975 24.98 184.535 24.32 182.815 23.8C181.095 23.24 179.555 22.96 178.195 22.96C176.555 22.96 175.395 23.2 174.715 23.68C174.035 24.12 173.695 24.66 173.695 25.3C173.695 26.38 174.435 27.04 175.915 27.28L182.575 28.42C185.135 28.82 187.095 29.7 188.455 31.06C189.855 32.38 190.555 34.18 190.555 36.46C190.555 39.7 189.315 42.22 186.835 44.02C184.355 45.78 181.055 46.66 176.935 46.66ZM118.033 128.66C113.753 128.66 109.993 127.76 106.753 125.96C103.553 124.12 101.053 121.56 99.253 118.28C97.453 115 96.553 111.18 96.553 106.82C96.553 102.42 97.433 98.6 99.193 95.36C100.993 92.08 103.513 89.54 106.753 87.74C109.993 85.94 113.753 85.04 118.033 85.04C122.313 85.04 126.053 85.94 129.253 87.74C132.493 89.54 135.013 92.08 136.813 95.36C138.613 98.6 139.513 102.42 139.513 106.82C139.513 111.18 138.613 115 136.813 118.28C135.013 121.56 132.493 124.12 129.253 125.96C126.053 127.76 122.313 128.66 118.033 128.66ZM118.033 119.42C121.153 119.42 123.593 118.32 125.353 116.12C127.153 113.88 128.053 110.78 128.053 106.82C128.053 102.86 127.173 99.78 125.413 97.58C123.653 95.38 121.193 94.28 118.033 94.28C114.873 94.28 112.413 95.38 110.653 97.58C108.893 99.78 108.013 102.86 108.013 106.82C108.013 110.78 108.893 113.88 110.653 116.12C112.413 118.32 114.873 119.42 118.033 119.42ZM145.311 128V98.48H155.691V103.46C157.051 100.06 159.991 98.2 164.511 97.88L167.451 97.64L168.051 106.64L162.231 107.18C160.111 107.38 158.571 107.98 157.611 108.98C156.651 109.94 156.171 111.38 156.171 113.3V128H145.311ZM77.4758 210V176.7H64.0358V167.7H101.956V176.7H88.5158V210H77.4758ZM105.409 210V167.7H116.089V184.14C118.209 181.26 121.289 179.82 125.329 179.82C128.849 179.82 131.449 180.86 133.129 182.94C134.849 185.02 135.709 188.22 135.709 192.54V210H125.029V192.96C125.029 191.16 124.709 189.88 124.069 189.12C123.469 188.36 122.569 187.98 121.369 187.98C119.769 187.98 118.489 188.5 117.529 189.54C116.569 190.54 116.089 191.9 116.089 193.62V210H105.409ZM152.056 210.66C149.776 210.66 147.756 210.24 145.996 209.4C144.276 208.56 142.916 207.42 141.916 205.98C140.956 204.5 140.476 202.82 140.476 200.94C140.476 198.82 141.036 197.14 142.156 195.9C143.276 194.62 145.076 193.72 147.556 193.2C150.036 192.64 153.336 192.36 157.456 192.36H159.736V191.52C159.736 190.08 159.356 189.06 158.596 188.46C157.876 187.86 156.616 187.56 154.816 187.56C153.296 187.56 151.616 187.8 149.776 188.28C147.936 188.76 146.136 189.5 144.376 190.5L141.676 183.48C142.676 182.76 143.956 182.12 145.516 181.56C147.076 181 148.716 180.58 150.436 180.3C152.156 179.98 153.776 179.82 155.296 179.82C160.216 179.82 163.856 180.88 166.216 183C168.616 185.12 169.816 188.46 169.816 193.02V210H159.856V205.8C159.336 207.32 158.396 208.52 157.036 209.4C155.676 210.24 154.016 210.66 152.056 210.66ZM154.456 203.7C155.936 203.7 157.176 203.22 158.176 202.26C159.216 201.3 159.736 200.04 159.736 198.48V197.4H157.456C155.096 197.4 153.356 197.66 152.236 198.18C151.156 198.66 150.616 199.44 150.616 200.52C150.616 201.44 150.936 202.2 151.576 202.8C152.256 203.4 153.216 203.7 154.456 203.7ZM191.377 210.66C186.897 210.66 183.577 209.62 181.417 207.54C179.257 205.46 178.177 202.32 178.177 198.12V188.34H172.657V180.48H178.177V171.9H188.857V180.48H197.257V188.34H188.857V197.76C188.857 200.64 190.317 202.08 193.237 202.08C193.717 202.08 194.237 202.04 194.797 201.96C195.397 201.84 196.057 201.68 196.777 201.48L198.217 209.16C197.297 209.64 196.217 210 194.977 210.24C193.737 210.52 192.537 210.66 191.377 210.66Z" fill="#DAFDBA"/>
<path d="M212.582 143.003C212.001 142.091 211.848 141.008 212.156 139.994C212.464 138.98 213.208 138.117 214.225 137.596C228.441 130.301 229.666 118.413 229.666 107.994V84.5341L216.592 96.2692C216.184 96.6477 215.697 96.9495 215.158 97.1571C214.619 97.3646 214.039 97.4737 213.453 97.478C212.867 97.4824 212.285 97.3818 211.742 97.1822C211.2 96.9827 210.707 96.6881 210.292 96.3157C209.878 95.9433 209.55 95.5005 209.328 95.0131C209.106 94.5258 208.995 94.0037 209 93.4773C209.006 92.9509 209.128 92.4307 209.359 91.9472C209.591 91.4636 209.928 91.0262 210.35 90.6607L230.961 72.1594C231.789 71.417 232.912 71 234.082 71C235.253 71 236.375 71.417 237.203 72.1594L257.815 90.6607C258.595 91.4122 259.02 92.4063 258.999 93.4334C258.979 94.4604 258.516 95.4404 257.706 96.1668C256.897 96.8932 255.805 97.3092 254.661 97.3274C253.517 97.3455 252.41 96.9642 251.572 96.2639L238.499 84.5289V107.999C238.499 118.724 237.368 134.852 218.606 144.478C217.589 144.999 216.383 145.137 215.254 144.86C214.124 144.584 213.163 143.916 212.582 143.003V143.003Z" fill="#012030"/>
<path d="M46.4183 72.9966C46.9989 73.9094 47.152 74.9917 46.8439 76.0058C46.5358 77.0198 45.7917 77.8825 44.7752 78.4043C30.5594 85.6991 29.3345 97.5874 29.3345 108.006V131.466L42.4079 119.731C42.8155 119.352 43.303 119.05 43.842 118.843C44.381 118.635 44.9606 118.526 45.547 118.522C46.1335 118.518 46.715 118.618 47.2577 118.818C47.8004 119.017 48.2934 119.312 48.7078 119.684C49.1223 120.057 49.4501 120.5 49.6719 120.987C49.8937 121.474 50.0052 121.996 49.9998 122.523C49.9944 123.049 49.8723 123.569 49.6406 124.053C49.4089 124.536 49.0722 124.974 48.6502 125.339L28.0389 143.841C27.2108 144.583 26.0882 145 24.9178 145C23.7473 145 22.6248 144.583 21.7966 143.841L1.18539 125.339C0.405228 124.588 -0.0195004 123.594 0.000688104 122.567C0.0208766 121.54 0.484406 120.56 1.29362 119.833C2.10284 119.107 3.19456 118.691 4.33878 118.673C5.48301 118.655 6.5904 119.036 7.42766 119.736L20.5011 131.471V108.001C20.5011 97.2756 21.6318 81.1478 40.3939 71.5218C41.4107 71.0006 42.6165 70.8631 43.7462 71.1397C44.8759 71.4163 45.837 72.0842 46.4183 72.9966V72.9966Z" fill="#001A27"/>
</svg>
