<svg width="30" height="30" viewBox="0 0 30 30" fill="none" xmlns="http://www.w3.org/2000/svg">
<rect width="30" height="30" rx="15" fill="#45C4B0"/>
<path d="M9.83794 20.14C8.88594 20.14 8.0506 19.93 7.33194 19.51C6.6226 19.09 6.07194 18.502 5.67994 17.746C5.28794 16.9807 5.09194 16.0847 5.09194 15.058C5.09194 14.022 5.28794 13.126 5.67994 12.37C6.07194 11.614 6.6226 11.0307 7.33194 10.62C8.04127 10.2 8.8766 9.99 9.83794 9.99C10.7993 9.99 11.6346 10.2 12.3439 10.62C13.0533 11.0307 13.6039 11.614 13.9959 12.37C14.3879 13.126 14.5839 14.0173 14.5839 15.044C14.5839 16.08 14.3879 16.9807 13.9959 17.746C13.6039 18.502 13.0533 19.09 12.3439 19.51C11.6346 19.93 10.7993 20.14 9.83794 20.14ZM9.83794 18.6C10.7433 18.6 11.4479 18.2873 11.9519 17.662C12.4559 17.0367 12.7079 16.1687 12.7079 15.058C12.7079 13.938 12.4559 13.07 11.9519 12.454C11.4573 11.838 10.7526 11.53 9.83794 11.53C8.9326 11.53 8.22794 11.838 7.72394 12.454C7.21994 13.07 6.96794 13.938 6.96794 15.058C6.96794 16.1687 7.21994 17.0367 7.72394 17.662C8.22794 18.2873 8.9326 18.6 9.83794 18.6ZM20.5081 20.14C19.1548 20.14 18.1188 19.79 17.4001 19.09C16.6908 18.3807 16.3361 17.3353 16.3361 15.954V10.13H18.1281V15.94C18.1281 16.8267 18.3288 17.494 18.7301 17.942C19.1408 18.3807 19.7335 18.6 20.5081 18.6C22.0855 18.6 22.8741 17.7133 22.8741 15.94V10.13H24.6521V15.954C24.6521 17.3353 24.3021 18.3807 23.6021 19.09C22.9021 19.79 21.8708 20.14 20.5081 20.14Z" fill="black"/>
</svg>
